TITLE ""
FILE "P1Q_t_0669-0677.mp3" MP3
  TRACK 01 AUDIO
    TITLE "P1Q_t_0669-0677_01"
    INDEX 01 00:00:00
  TRACK 02 AUDIO
    TITLE "P1Q_t_0669-0677_02"
    INDEX 01 00:01:31
  TRACK 03 AUDIO
    TITLE "P1Q_t_0669-0677_03"
    INDEX 01 00:01:53
  TRACK 04 AUDIO
    TITLE "P1Q_t_0669-0677_04"
    INDEX 01 00:05:35
  TRACK 05 AUDIO
    TITLE "P1Q_t_0669-0677_05"
    INDEX 01 00:05:57
  TRACK 06 AUDIO
    TITLE "P1Q_t_0669-0677_06"
    INDEX 01 00:10:36
  TRACK 07 AUDIO
    TITLE "P1Q_t_0669-0677_07"
    INDEX 01 00:11:08
  TRACK 08 AUDIO
    TITLE "P1Q_t_0669-0677_08"
    INDEX 01 00:12:15
  TRACK 09 AUDIO
    TITLE "P1Q_t_0669-0677_09"
    INDEX 01 00:12:37
  TRACK 10 AUDIO
    TITLE "P1Q_t_0669-0677_10"
    INDEX 01 00:14:01
  TRACK 11 AUDIO
    TITLE "P1Q_t_0669-0677_11"
    INDEX 01 00:14:20
  TRACK 12 AUDIO
    TITLE "P1Q_t_0669-0677_12"
    INDEX 01 00:18:63
  TRACK 13 AUDIO
    TITLE "P1Q_t_0669-0677_13"
    INDEX 01 00:19:35
  TRACK 14 AUDIO
    TITLE "P1Q_t_0669-0677_14"
    INDEX 01 00:20:54
  TRACK 15 AUDIO
    TITLE "P1Q_t_0669-0677_15"
    INDEX 01 00:21:03
  TRACK 16 AUDIO
    TITLE "P1Q_t_0669-0677_16"
    INDEX 01 00:24:36
  TRACK 17 AUDIO
    TITLE "P1Q_t_0669-0677_17"
    INDEX 01 00:24:56
  TRACK 18 AUDIO
    TITLE "P1Q_t_0669-0677_18"
    INDEX 01 00:29:04
  TRACK 19 AUDIO
    TITLE "P1Q_t_0669-0677_19"
    INDEX 01 00:29:49
  TRACK 20 AUDIO
    TITLE "P1Q_t_0669-0677_20"
    INDEX 01 00:31:09
  TRACK 21 AUDIO
    TITLE "P1Q_t_0669-0677_21"
    INDEX 01 00:31:32
  TRACK 22 AUDIO
    TITLE "P1Q_t_0669-0677_22"
    INDEX 01 00:34:15
  TRACK 23 AUDIO
    TITLE "P1Q_t_0669-0677_23"
    INDEX 01 00:34:35
  TRACK 24 AUDIO
    TITLE "P1Q_t_0669-0677_24"
    INDEX 01 00:38:32
  TRACK 25 AUDIO
    TITLE "P1Q_t_0669-0677_25"
    INDEX 01 00:39:03
  TRACK 26 AUDIO
    TITLE "P1Q_t_0669-0677_26"
    INDEX 01 00:40:29
  TRACK 27 AUDIO
    TITLE "P1Q_t_0669-0677_27"
    INDEX 01 00:40:55
  TRACK 28 AUDIO
    TITLE "P1Q_t_0669-0677_28"
    INDEX 01 00:46:36
  TRACK 29 AUDIO
    TITLE "P1Q_t_0669-0677_29"
    INDEX 01 00:46:57
  TRACK 30 AUDIO
    TITLE "P1Q_t_0669-0677_30"
    INDEX 01 00:51:47
  TRACK 31 AUDIO
    TITLE "P1Q_t_0669-0677_31"
    INDEX 01 00:52:19
  TRACK 32 AUDIO
    TITLE "P1Q_t_0669-0677_32"
    INDEX 01 00:53:30
  TRACK 33 AUDIO
    TITLE "P1Q_t_0669-0677_33"
    INDEX 01 00:53:52
  TRACK 34 AUDIO
    TITLE "P1Q_t_0669-0677_34"
    INDEX 01 00:55:72
  TRACK 35 AUDIO
    TITLE "P1Q_t_0669-0677_35"
    INDEX 01 00:56:19
  TRACK 36 AUDIO
    TITLE "P1Q_t_0669-0677_36"
    INDEX 01 01:00:01
  TRACK 37 AUDIO
    TITLE "P1Q_t_0669-0677_37"
    INDEX 01 01:00:48
  TRACK 38 AUDIO
    TITLE "P1Q_t_0669-0677_38"
    INDEX 01 01:02:17
  TRACK 39 AUDIO
    TITLE "P1Q_t_0669-0677_39"
    INDEX 01 01:02:39
  TRACK 40 AUDIO
    TITLE "P1Q_t_0669-0677_40"
    INDEX 01 01:04:02
  TRACK 41 AUDIO
    TITLE "P1Q_t_0669-0677_41"
    INDEX 01 01:04:20
  TRACK 42 AUDIO
    TITLE "P1Q_t_0669-0677_42"
    INDEX 01 01:09:60
  TRACK 43 AUDIO
    TITLE "P1Q_t_0669-0677_43"
    INDEX 01 01:10:31
  TRACK 44 AUDIO
    TITLE "P1Q_t_0669-0677_44"
    INDEX 01 01:11:48
  TRACK 45 AUDIO
    TITLE "P1Q_t_0669-0677_45"
    INDEX 01 01:11:69
  TRACK 46 AUDIO
    TITLE "P1Q_t_0669-0677_46"
    INDEX 01 01:13:70
  TRACK 47 AUDIO
    TITLE "P1Q_t_0669-0677_47"
    INDEX 01 01:14:13
  TRACK 48 AUDIO
    TITLE "P1Q_t_0669-0677_48"
    INDEX 01 01:18:42
  TRACK 49 AUDIO
    TITLE "P1Q_t_0669-0677_49"
    INDEX 01 01:19:16
  TRACK 50 AUDIO
    TITLE "P1Q_t_0669-0677_50"
    INDEX 01 01:20:37
  TRACK 51 AUDIO
    TITLE "P1Q_t_0669-0677_51"
    INDEX 01 01:21:07
  TRACK 52 AUDIO
    TITLE "P1Q_t_0669-0677_52"
    INDEX 01 01:22:34
  TRACK 53 AUDIO
    TITLE "P1Q_t_0669-0677_53"
    INDEX 01 01:22:55
  TRACK 54 AUDIO
    TITLE "P1Q_t_0669-0677_54"
    INDEX 01 01:25:44
  TRACK 55 AUDIO
    TITLE "P1Q_t_0669-0677_55"
    INDEX 01 01:25:63
  TRACK 56 AUDIO
    TITLE "P1Q_t_0669-0677_56"
    INDEX 01 01:30:18
